<svg width="1980" height="967" viewBox="0 0 1980 967" fill="none" xmlns="http://www.w3.org/2000/svg">
<rect width="1980" height="966.98" rx="50" fill="#1F2438"/>
<g filter="url(#filter0_dd_419_1747)">
<path fill-rule="evenodd" clip-rule="evenodd" d="M207.97 596.343C211.718 596.258 215.455 595.026 218.623 592.623L294.119 535.351L467.398 693.438C470.14 696.181 473.361 698.247 476.822 699.596C480.049 700.852 483.486 701.486 486.945 701.464C490.977 701.468 495.042 700.582 498.839 698.756L589.427 655.193C598.947 650.615 605 640.988 605 630.426V335.041C605 324.478 598.947 314.85 589.427 310.273L498.839 266.708C495.012 264.867 490.912 263.982 486.848 264C481.103 263.985 475.421 265.777 470.672 269.229C469.523 270.065 468.427 270.999 467.398 272.028L294.119 430.114L218.623 372.842C215.335 370.347 211.433 369.114 207.543 369.116C203.109 369.113 198.688 370.715 195.207 373.881L170.994 395.906C167.672 398.928 165.731 402.866 165.171 406.959C164.973 408.4 164.947 409.861 165.092 411.307C165.525 415.627 167.486 419.821 170.974 423.003L236.444 482.732L170.974 542.462C168.335 544.87 166.571 547.857 165.68 551.039C165.183 552.813 164.959 554.649 165.006 556.479C165.13 561.28 167.126 566.041 170.994 569.559L195.207 591.583C198.8 594.852 203.394 596.454 207.97 596.343ZM494.866 582.405L363.479 482.732L494.866 383.059V582.405Z" fill="#B179F1"/>
</g>
<path d="M589.438 310.34L498.834 266.716C488.347 261.666 475.813 263.796 467.582 272.027L170.978 542.461C163 549.736 163.009 562.296 170.997 569.558L195.225 591.582C201.756 597.521 211.592 597.957 218.623 592.623L575.804 321.658C587.787 312.567 604.998 321.114 604.998 336.155V335.103C604.998 324.545 598.95 314.92 589.438 310.34Z" fill="#0065A9"/>
<g filter="url(#filter1_d_419_1747)">
<path d="M589.438 655.124L498.834 698.749C488.347 703.797 475.813 701.667 467.582 693.438L170.978 423.003C163 415.729 163.009 403.169 170.997 395.907L195.225 373.881C201.756 367.944 211.592 367.507 218.623 372.842L575.804 643.806C587.787 652.897 604.998 644.351 604.998 629.309V630.362C604.998 640.919 598.95 650.543 589.438 655.124Z" fill="#007ACC"/>
</g>
<g filter="url(#filter2_d_419_1747)">
<path d="M498.839 698.756C488.349 703.801 475.815 701.669 467.584 693.438C477.725 703.579 495.067 696.396 495.067 682.053V283.411C495.067 269.069 477.725 261.886 467.584 272.027C475.815 263.796 488.349 261.663 498.839 266.708L589.427 310.273C598.947 314.85 605 324.478 605 335.041V630.426C605 640.988 598.947 650.615 589.427 655.193L498.839 698.756Z" fill="#1F9CF0"/>
</g>
<g style="mix-blend-mode:overlay" opacity="0.25">
<path style="mix-blend-mode:overlay" opacity="0.25" fill-rule="evenodd" clip-rule="evenodd" d="M476.822 699.596C483.747 702.292 491.645 702.121 498.635 698.757L589.168 655.193C598.682 650.615 604.732 640.988 604.732 630.425V335.041C604.732 324.478 598.682 314.85 589.17 310.273L498.635 266.708C489.462 262.294 478.725 263.375 470.672 269.229C469.523 270.065 468.427 270.999 467.398 272.028L294.083 430.147L218.591 372.842C211.563 367.507 201.733 367.944 195.207 373.881L170.994 395.906C163.01 403.169 163.001 415.729 170.974 423.003L236.444 482.732L170.974 542.462C163.001 549.736 163.01 562.296 170.994 569.559L195.207 591.583C201.733 597.521 211.563 597.957 218.591 592.624L294.083 535.318L467.398 693.438C470.14 696.181 473.361 698.247 476.822 699.596ZM494.866 382.908L363.359 482.732L494.866 582.557V382.908Z" fill="url(#paint0_linear_419_1747)"/>
</g>
<path d="M1138.83 423V332.76H1149.45V423H1138.83ZM1170.8 423V373.592C1170.8 371.203 1170.67 368.771 1170.42 366.296C1170.24 363.736 1170.03 361.219 1169.78 358.744H1179.76L1181.04 372.824H1179.5C1181.38 367.875 1184.37 364.12 1188.46 361.56C1192.64 358.915 1197.47 357.592 1202.93 357.592C1210.52 357.592 1216.24 359.64 1220.08 363.736C1224 367.747 1225.97 374.104 1225.97 382.808V423H1215.6V383.448C1215.6 377.389 1214.36 372.995 1211.89 370.264C1209.5 367.448 1205.74 366.04 1200.62 366.04C1194.65 366.04 1189.91 367.875 1186.42 371.544C1182.92 375.213 1181.17 380.12 1181.17 386.264V423H1170.8ZM1267.18 424.152C1262.06 424.152 1257.28 423.469 1252.84 422.104C1248.4 420.653 1244.73 418.648 1241.83 416.088L1245.42 408.792C1248.57 411.267 1251.99 413.101 1255.66 414.296C1259.41 415.491 1263.29 416.088 1267.3 416.088C1272.42 416.088 1276.26 415.192 1278.82 413.4C1281.47 411.523 1282.79 408.963 1282.79 405.72C1282.79 403.245 1281.94 401.283 1280.23 399.832C1278.61 398.296 1275.92 397.101 1272.17 396.248L1260.26 393.816C1254.8 392.621 1250.71 390.616 1247.98 387.8C1245.24 384.899 1243.88 381.229 1243.88 376.792C1243.88 373.037 1244.86 369.752 1246.82 366.936C1248.79 364.035 1251.64 361.773 1255.4 360.152C1259.15 358.445 1263.55 357.592 1268.58 357.592C1273.28 357.592 1277.59 358.317 1281.51 359.768C1285.52 361.133 1288.85 363.139 1291.5 365.784L1287.78 372.952C1285.22 370.477 1282.28 368.643 1278.95 367.448C1275.71 366.168 1272.34 365.528 1268.84 365.528C1263.8 365.528 1260.01 366.552 1257.45 368.6C1254.97 370.563 1253.74 373.165 1253.74 376.408C1253.74 378.883 1254.5 380.931 1256.04 382.552C1257.66 384.088 1260.14 385.24 1263.46 386.008L1275.37 388.44C1281.17 389.72 1285.48 391.725 1288.3 394.456C1291.2 397.101 1292.65 400.685 1292.65 405.208C1292.65 409.048 1291.58 412.419 1289.45 415.32C1287.31 418.136 1284.33 420.312 1280.49 421.848C1276.73 423.384 1272.3 424.152 1267.18 424.152ZM1331.46 424.152C1325.14 424.152 1320.32 422.36 1316.99 418.776C1313.67 415.107 1312 409.603 1312 402.264V366.808H1299.46V358.744H1312V341.208L1322.37 338.264V358.744H1340.8V366.808H1322.37V401.112C1322.37 406.232 1323.22 409.901 1324.93 412.12C1326.72 414.253 1329.37 415.32 1332.87 415.32C1334.49 415.32 1335.94 415.192 1337.22 414.936C1338.5 414.595 1339.65 414.211 1340.67 413.784V422.488C1339.48 423 1338.03 423.384 1336.32 423.64C1334.7 423.981 1333.08 424.152 1331.46 424.152ZM1377.87 424.152C1372.16 424.152 1367.16 422.829 1362.9 420.184C1358.63 417.453 1355.3 413.613 1352.91 408.664C1350.61 403.715 1349.46 397.784 1349.46 390.872C1349.46 383.875 1350.61 377.901 1352.91 372.952C1355.3 368.003 1358.63 364.205 1362.9 361.56C1367.16 358.915 1372.16 357.592 1377.87 357.592C1383.68 357.592 1388.67 359.085 1392.85 362.072C1397.12 364.973 1399.93 368.941 1401.3 373.976H1399.76L1401.17 358.744H1411.15C1410.9 361.219 1410.64 363.736 1410.38 366.296C1410.21 368.771 1410.13 371.203 1410.13 373.592V423H1399.76V407.896H1401.17C1399.8 412.931 1396.99 416.899 1392.72 419.8C1388.45 422.701 1383.5 424.152 1377.87 424.152ZM1379.92 415.704C1386.06 415.704 1390.93 413.613 1394.51 409.432C1398.1 405.165 1399.89 398.979 1399.89 390.872C1399.89 382.68 1398.1 376.493 1394.51 372.312C1390.93 368.045 1386.06 365.912 1379.92 365.912C1373.86 365.912 1369 368.045 1365.33 372.312C1361.74 376.493 1359.95 382.68 1359.95 390.872C1359.95 398.979 1361.74 405.165 1365.33 409.432C1369 413.613 1373.86 415.704 1379.92 415.704ZM1430.17 423V328.792H1440.54V423H1430.17ZM1460.67 423V328.792H1471.04V423H1460.67ZM804.555 584L765.259 493.76H776.651L811.595 575.552H807.627L842.827 493.76H853.835L814.283 584H804.555ZM864.362 584V519.744H874.73V584H864.362ZM863.082 505.152V493.504H875.882V505.152H863.082ZM916.238 585.152C911.118 585.152 906.339 584.469 901.902 583.104C897.465 581.653 893.795 579.648 890.894 577.088L894.478 569.792C897.635 572.267 901.049 574.101 904.718 575.296C908.473 576.491 912.355 577.088 916.366 577.088C921.486 577.088 925.326 576.192 927.886 574.4C930.531 572.523 931.854 569.963 931.854 566.72C931.854 564.245 931.001 562.283 929.294 560.832C927.673 559.296 924.985 558.101 921.23 557.248L909.326 554.816C903.865 553.621 899.769 551.616 897.038 548.8C894.307 545.899 892.942 542.229 892.942 537.792C892.942 534.037 893.923 530.752 895.886 527.936C897.849 525.035 900.707 522.773 904.462 521.152C908.217 519.445 912.611 518.592 917.646 518.592C922.339 518.592 926.649 519.317 930.574 520.768C934.585 522.133 937.913 524.139 940.558 526.784L936.846 533.952C934.286 531.477 931.342 529.643 928.014 528.448C924.771 527.168 921.401 526.528 917.902 526.528C912.867 526.528 909.07 527.552 906.51 529.6C904.035 531.563 902.798 534.165 902.798 537.408C902.798 539.883 903.566 541.931 905.102 543.552C906.723 545.088 909.198 546.24 912.526 547.008L924.43 549.44C930.233 550.72 934.542 552.725 937.358 555.456C940.259 558.101 941.71 561.685 941.71 566.208C941.71 570.048 940.643 573.419 938.51 576.32C936.377 579.136 933.39 581.312 929.55 582.848C925.795 584.384 921.358 585.152 916.238 585.152ZM981.018 585.152C973.423 585.152 967.663 583.061 963.738 578.88C959.898 574.699 957.978 568.299 957.978 559.68V519.744H968.346V559.424C968.346 565.312 969.541 569.664 971.93 572.48C974.319 575.211 978.031 576.576 983.066 576.576C988.698 576.576 993.221 574.741 996.634 571.072C1000.05 567.403 1001.75 562.496 1001.75 556.352V519.744H1012.12V584H1002.01V569.536H1003.67C1001.88 574.485 998.981 578.325 994.97 581.056C991.045 583.787 986.394 585.152 981.018 585.152ZM1056.69 585.152C1050.97 585.152 1045.98 583.829 1041.71 581.184C1037.44 578.453 1034.11 574.613 1031.73 569.664C1029.42 564.715 1028.27 558.784 1028.27 551.872C1028.27 544.875 1029.42 538.901 1031.73 533.952C1034.11 529.003 1037.44 525.205 1041.71 522.56C1045.98 519.915 1050.97 518.592 1056.69 518.592C1062.49 518.592 1067.48 520.085 1071.66 523.072C1075.93 525.973 1078.74 529.941 1080.11 534.976H1078.57L1079.98 519.744H1089.97C1089.71 522.219 1089.45 524.736 1089.2 527.296C1089.03 529.771 1088.94 532.203 1088.94 534.592V584H1078.57V568.896H1079.98C1078.62 573.931 1075.8 577.899 1071.53 580.8C1067.27 583.701 1062.32 585.152 1056.69 585.152ZM1058.73 576.704C1064.88 576.704 1069.74 574.613 1073.33 570.432C1076.91 566.165 1078.7 559.979 1078.7 551.872C1078.7 543.68 1076.91 537.493 1073.33 533.312C1069.74 529.045 1064.88 526.912 1058.73 526.912C1052.67 526.912 1047.81 529.045 1044.14 533.312C1040.56 537.493 1038.77 543.68 1038.77 551.872C1038.77 559.979 1040.56 566.165 1044.14 570.432C1047.81 574.613 1052.67 576.704 1058.73 576.704ZM1108.99 584V489.792H1119.36V584H1108.99ZM1203.45 585.152C1196.2 585.152 1189.72 584.213 1184 582.336C1178.28 580.459 1173.29 577.771 1169.02 574.272L1172.86 565.824C1175.85 568.043 1178.84 569.92 1181.82 571.456C1184.89 572.907 1188.18 574.016 1191.68 574.784C1195.18 575.467 1199.1 575.808 1203.45 575.808C1211.05 575.808 1216.68 574.4 1220.35 571.584C1224.02 568.768 1225.85 565.013 1225.85 560.32C1225.85 556.309 1224.57 553.237 1222.01 551.104C1219.45 548.971 1214.97 547.264 1208.57 545.984L1195.13 543.296C1186.86 541.589 1180.67 538.816 1176.57 534.976C1172.56 531.136 1170.56 525.931 1170.56 519.36C1170.56 513.984 1171.92 509.291 1174.65 505.28C1177.47 501.269 1181.4 498.155 1186.43 495.936C1191.46 493.717 1197.31 492.608 1203.97 492.608C1210.37 492.608 1216.21 493.589 1221.5 495.552C1226.79 497.429 1231.32 500.203 1235.07 503.872L1231.36 512.064C1227.35 508.48 1223.12 505.92 1218.69 504.384C1214.33 502.763 1209.38 501.952 1203.84 501.952C1196.84 501.952 1191.29 503.488 1187.2 506.56C1183.19 509.547 1181.18 513.643 1181.18 518.848C1181.18 523.029 1182.46 526.315 1185.02 528.704C1187.58 531.008 1191.81 532.757 1197.69 533.952L1211.26 536.64C1219.97 538.432 1226.37 541.12 1230.46 544.704C1234.56 548.288 1236.61 553.323 1236.61 559.808C1236.61 564.757 1235.24 569.152 1232.51 572.992C1229.86 576.832 1226.07 579.819 1221.12 581.952C1216.17 584.085 1210.28 585.152 1203.45 585.152ZM1275.15 585.152C1268.83 585.152 1264.01 583.36 1260.68 579.776C1257.35 576.107 1255.69 570.603 1255.69 563.264V527.808H1243.15V519.744H1255.69V502.208L1266.06 499.264V519.744H1284.49V527.808H1266.06V562.112C1266.06 567.232 1266.91 570.901 1268.62 573.12C1270.41 575.253 1273.06 576.32 1276.55 576.32C1278.18 576.32 1279.63 576.192 1280.91 575.936C1282.19 575.595 1283.34 575.211 1284.36 574.784V583.488C1283.17 584 1281.72 584.384 1280.01 584.64C1278.39 584.981 1276.77 585.152 1275.15 585.152ZM1319.77 585.152C1312.17 585.152 1306.41 583.061 1302.49 578.88C1298.65 574.699 1296.73 568.299 1296.73 559.68V519.744H1307.1V559.424C1307.1 565.312 1308.29 569.664 1310.68 572.48C1313.07 575.211 1316.78 576.576 1321.82 576.576C1327.45 576.576 1331.97 574.741 1335.38 571.072C1338.8 567.403 1340.5 562.496 1340.5 556.352V519.744H1350.87V584H1340.76V569.536H1342.42C1340.63 574.485 1337.73 578.325 1333.72 581.056C1329.79 583.787 1325.14 585.152 1319.77 585.152ZM1395.31 585.152C1389.68 585.152 1384.73 583.829 1380.46 581.184C1376.19 578.453 1372.86 574.613 1370.48 569.664C1368.17 564.715 1367.02 558.784 1367.02 551.872C1367.02 544.875 1368.17 538.901 1370.48 533.952C1372.86 529.003 1376.19 525.205 1380.46 522.56C1384.73 519.915 1389.68 518.592 1395.31 518.592C1401.11 518.592 1406.1 520.043 1410.28 522.944C1414.55 525.845 1417.41 529.771 1418.86 534.72H1417.32V489.792H1427.69V584H1417.45V568.64H1418.86C1417.49 573.76 1414.68 577.813 1410.41 580.8C1406.14 583.701 1401.11 585.152 1395.31 585.152ZM1397.48 576.704C1403.54 576.704 1408.41 574.613 1412.08 570.432C1415.74 566.165 1417.58 559.979 1417.58 551.872C1417.58 543.68 1415.74 537.493 1412.08 533.312C1408.41 529.045 1403.54 526.912 1397.48 526.912C1391.42 526.912 1386.56 529.045 1382.89 533.312C1379.31 537.493 1377.52 543.68 1377.52 551.872C1377.52 559.979 1379.31 566.165 1382.89 570.432C1386.56 574.613 1391.42 576.704 1397.48 576.704ZM1447.74 584V519.744H1458.11V584H1447.74ZM1446.46 505.152V493.504H1459.26V505.152H1446.46ZM1504.61 585.152C1498.46 585.152 1493.09 583.829 1488.48 581.184C1483.95 578.453 1480.46 574.613 1477.98 569.664C1475.51 564.629 1474.27 558.699 1474.27 551.872C1474.27 544.96 1475.51 539.029 1477.98 534.08C1480.46 529.131 1483.95 525.333 1488.48 522.688C1493.09 519.957 1498.46 518.592 1504.61 518.592C1510.83 518.592 1516.21 519.957 1520.73 522.688C1525.34 525.333 1528.88 529.131 1531.36 534.08C1533.92 539.029 1535.2 544.96 1535.2 551.872C1535.2 558.699 1533.92 564.629 1531.36 569.664C1528.88 574.613 1525.34 578.453 1520.73 581.184C1516.21 583.829 1510.83 585.152 1504.61 585.152ZM1504.61 576.704C1510.75 576.704 1515.61 574.613 1519.2 570.432C1522.78 566.165 1524.57 559.979 1524.57 551.872C1524.57 543.68 1522.74 537.493 1519.07 533.312C1515.49 529.045 1510.66 526.912 1504.61 526.912C1498.55 526.912 1493.73 529.045 1490.14 533.312C1486.56 537.493 1484.77 543.68 1484.77 551.872C1484.77 559.979 1486.56 566.165 1490.14 570.432C1493.73 574.613 1498.55 576.704 1504.61 576.704ZM1625.19 585.152C1616.14 585.152 1608.46 583.275 1602.15 579.52C1595.83 575.765 1590.97 570.432 1587.55 563.52C1584.23 556.608 1582.56 548.373 1582.56 538.816C1582.56 529.259 1584.23 521.067 1587.55 514.24C1590.97 507.328 1595.83 501.995 1602.15 498.24C1608.46 494.485 1616.14 492.608 1625.19 492.608C1631.59 492.608 1637.3 493.589 1642.34 495.552C1647.37 497.515 1651.77 500.373 1655.52 504.128L1651.55 512.576C1647.46 508.992 1643.4 506.389 1639.39 504.768C1635.38 503.061 1630.69 502.208 1625.31 502.208C1614.99 502.208 1607.14 505.408 1601.76 511.808C1596.39 518.208 1593.7 527.211 1593.7 538.816C1593.7 550.421 1596.39 559.467 1601.76 565.952C1607.14 572.352 1614.99 575.552 1625.31 575.552C1630.69 575.552 1635.38 574.741 1639.39 573.12C1643.4 571.413 1647.46 568.725 1651.55 565.056L1655.52 573.632C1651.77 577.301 1647.37 580.16 1642.34 582.208C1637.3 584.171 1631.59 585.152 1625.19 585.152ZM1694.11 585.152C1687.96 585.152 1682.59 583.829 1677.98 581.184C1673.45 578.453 1669.96 574.613 1667.48 569.664C1665.01 564.629 1663.77 558.699 1663.77 551.872C1663.77 544.96 1665.01 539.029 1667.48 534.08C1669.96 529.131 1673.45 525.333 1677.98 522.688C1682.59 519.957 1687.96 518.592 1694.11 518.592C1700.33 518.592 1705.71 519.957 1710.23 522.688C1714.84 525.333 1718.38 529.131 1720.86 534.08C1723.42 539.029 1724.7 544.96 1724.7 551.872C1724.7 558.699 1723.42 564.629 1720.86 569.664C1718.38 574.613 1714.84 578.453 1710.23 581.184C1705.71 583.829 1700.33 585.152 1694.11 585.152ZM1694.11 576.704C1700.25 576.704 1705.11 574.613 1708.7 570.432C1712.28 566.165 1714.07 559.979 1714.07 551.872C1714.07 543.68 1712.24 537.493 1708.57 533.312C1704.99 529.045 1700.16 526.912 1694.11 526.912C1688.05 526.912 1683.23 529.045 1679.64 533.312C1676.06 537.493 1674.27 543.68 1674.27 551.872C1674.27 559.979 1676.06 566.165 1679.64 570.432C1683.23 574.613 1688.05 576.704 1694.11 576.704ZM1765.18 585.152C1759.55 585.152 1754.6 583.829 1750.33 581.184C1746.07 578.453 1742.74 574.613 1740.35 569.664C1738.05 564.715 1736.89 558.784 1736.89 551.872C1736.89 544.875 1738.05 538.901 1740.35 533.952C1742.74 529.003 1746.07 525.205 1750.33 522.56C1754.6 519.915 1759.55 518.592 1765.18 518.592C1770.98 518.592 1775.98 520.043 1780.16 522.944C1784.42 525.845 1787.28 529.771 1788.73 534.72H1787.2V489.792H1797.57V584H1787.33V568.64H1788.73C1787.37 573.76 1784.55 577.813 1780.29 580.8C1776.02 583.701 1770.98 585.152 1765.18 585.152ZM1767.36 576.704C1773.42 576.704 1778.28 574.613 1781.95 570.432C1785.62 566.165 1787.45 559.979 1787.45 551.872C1787.45 543.68 1785.62 537.493 1781.95 533.312C1778.28 529.045 1773.42 526.912 1767.36 526.912C1761.3 526.912 1756.44 529.045 1752.77 533.312C1749.18 537.493 1747.39 543.68 1747.39 551.872C1747.39 559.979 1749.18 566.165 1752.77 570.432C1756.44 574.613 1761.3 576.704 1767.36 576.704ZM1846.16 585.152C1836.09 585.152 1828.15 582.251 1822.35 576.448C1816.55 570.56 1813.64 562.411 1813.64 552C1813.64 545.259 1814.92 539.413 1817.48 534.464C1820.04 529.429 1823.63 525.547 1828.24 522.816C1832.84 520 1838.13 518.592 1844.11 518.592C1850 518.592 1854.95 519.829 1858.96 522.304C1862.97 524.779 1866.04 528.32 1868.17 532.928C1870.31 537.451 1871.37 542.827 1871.37 549.056V552.896H1821.58V546.368H1864.59L1862.41 548.032C1862.41 541.205 1860.88 535.872 1857.8 532.032C1854.73 528.192 1850.17 526.272 1844.11 526.272C1837.71 526.272 1832.72 528.533 1829.13 533.056C1825.55 537.493 1823.76 543.509 1823.76 551.104V552.256C1823.76 560.277 1825.72 566.379 1829.64 570.56C1833.65 574.656 1839.24 576.704 1846.41 576.704C1850.25 576.704 1853.84 576.149 1857.16 575.04C1860.58 573.845 1863.82 571.925 1866.89 569.28L1870.48 576.576C1867.66 579.307 1864.08 581.44 1859.72 582.976C1855.46 584.427 1850.93 585.152 1846.16 585.152Z" fill="#6CC4FF"/>
<defs>
<filter id="filter0_dd_419_1747" x="141" y="248" width="488" height="485.465" filterUnits="userSpaceOnUse" color-interpolation-filters="sRGB">
<feFlood flood-opacity="0" result="BackgroundImageFix"/>
<feColorMatrix in="SourceAlpha" type="matrix" values="0 0 0 0 0 0 0 0 0 0 0 0 0 0 0 0 0 0 127 0" result="hardAlpha"/>
<feOffset dy="8"/>
<feGaussianBlur stdDeviation="12"/>
<feColorMatrix type="matrix" values="0 0 0 0 0 0 0 0 0 0 0 0 0 0 0 0 0 0 0.25 0"/>
<feBlend mode="normal" in2="BackgroundImageFix" result="effect1_dropShadow_419_1747"/>
<feColorMatrix in="SourceAlpha" type="matrix" values="0 0 0 0 0 0 0 0 0 0 0 0 0 0 0 0 0 0 127 0" result="hardAlpha"/>
<feOffset dy="8"/>
<feGaussianBlur stdDeviation="5"/>
<feColorMatrix type="matrix" values="0 0 0 0 0 0 0 0 0 0 0 0 0 0 0 0 0 0 0.25 0"/>
<feBlend mode="normal" in2="effect1_dropShadow_419_1747" result="effect2_dropShadow_419_1747"/>
<feBlend mode="normal" in="SourceGraphic" in2="effect2_dropShadow_419_1747" result="shape"/>
</filter>
<filter id="filter1_d_419_1747" x="143.667" y="347.783" width="482.665" height="375.011" filterUnits="userSpaceOnUse" color-interpolation-filters="sRGB">
<feFlood flood-opacity="0" result="BackgroundImageFix"/>
<feColorMatrix in="SourceAlpha" type="matrix" values="0 0 0 0 0 0 0 0 0 0 0 0 0 0 0 0 0 0 127 0" result="hardAlpha"/>
<feOffset/>
<feGaussianBlur stdDeviation="10.6667"/>
<feColorMatrix type="matrix" values="0 0 0 0 0 0 0 0 0 0 0 0 0 0 0 0 0 0 0.25 0"/>
<feBlend mode="overlay" in2="BackgroundImageFix" result="effect1_dropShadow_419_1747"/>
<feBlend mode="normal" in="SourceGraphic" in2="effect1_dropShadow_419_1747" result="shape"/>
</filter>
<filter id="filter2_d_419_1747" x="446.251" y="242.667" width="180.083" height="480.131" filterUnits="userSpaceOnUse" color-interpolation-filters="sRGB">
<feFlood flood-opacity="0" result="BackgroundImageFix"/>
<feColorMatrix in="SourceAlpha" type="matrix" values="0 0 0 0 0 0 0 0 0 0 0 0 0 0 0 0 0 0 127 0" result="hardAlpha"/>
<feOffset/>
<feGaussianBlur stdDeviation="10.6667"/>
<feColorMatrix type="matrix" values="0 0 0 0 0 0 0 0 0 0 0 0 0 0 0 0 0 0 0.25 0"/>
<feBlend mode="overlay" in2="BackgroundImageFix" result="effect1_dropShadow_419_1747"/>
<feBlend mode="normal" in="SourceGraphic" in2="effect1_dropShadow_419_1747" result="shape"/>
</filter>
<linearGradient id="paint0_linear_419_1747" x1="384.866" y1="264" x2="384.866" y2="701.464" gradientUnits="userSpaceOnUse">
<stop stop-color="white"/>
<stop offset="1" stop-color="white" stop-opacity="0"/>
</linearGradient>
</defs>
</svg>
