<svg width="100" height="113" viewBox="0 0 100 113" fill="none" xmlns="http://www.w3.org/2000/svg">
<circle cx="50" cy="54" r="50" fill="#FEFFDC"/>
<path d="M51.07 88.62C45.07 88.62 39.94 87.57 35.68 85.47C31.48 83.37 28.09 80.64 25.51 77.28C22.93 73.92 21.04 70.29 19.84 66.39C18.64 62.43 18.04 58.62 18.04 54.96V52.98C18.04 49.02 18.64 45.06 19.84 41.1C21.1 37.14 23.02 33.54 25.6 30.3C28.18 27.06 31.54 24.45 35.68 22.47C39.82 20.49 44.77 19.5 50.53 19.5C56.41 19.5 61.45 20.52 65.65 22.56C69.85 24.6 73.18 27.45 75.64 31.11C78.1 34.77 79.6 39.09 80.14 44.07H71.14C70.66 40.35 69.46 37.29 67.54 34.89C65.62 32.43 63.19 30.6 60.25 29.4C57.37 28.2 54.13 27.6 50.53 27.6C46.63 27.6 43.21 28.29 40.27 29.67C37.33 30.99 34.87 32.88 32.89 35.34C30.97 37.74 29.5 40.53 28.48 43.71C27.52 46.89 27.04 50.34 27.04 54.06C27.04 57.6 27.52 60.96 28.48 64.14C29.5 67.32 31 70.14 32.98 72.6C35.02 75.06 37.54 77.01 40.54 78.45C43.54 79.83 47.05 80.52 51.07 80.52C56.71 80.52 61.45 79.11 65.29 76.29C69.13 73.47 71.47 69.39 72.31 64.05H81.31C80.71 68.55 79.18 72.66 76.72 76.38C74.32 80.1 70.96 83.07 66.64 85.29C62.38 87.51 57.19 88.62 51.07 88.62Z" fill="#F4CE38"/>
</svg>
